HIERARCHY
ROOT hip
{
  OFFSET 0 0 0
  CHANNELS 6 Xposition Yposition Zposition Zrotation Yrotation Xrotation
  JOINT abdomen
  {
    OFFSET 0 20.6881 -0.73152
    CHANNELS 3 Zrotation Xrotation Yrotation
    JOINT chest
    {
      OFFSET 0 11.7043 -0.48768
      CHANNELS 3 Zrotation Xrotation Yrotation
      JOINT neck
      {
        OFFSET 0 22.1894 -2.19456
        CHANNELS 3 Zrotation Xrotation Yrotation
        JOINT head
        {
          OFFSET -0.24384 7.07133 1.2192
          CHANNELS 3 Zrotation Xrotation Yrotation
          JOINT leftEye
          {
            OFFSET 4.14528 8.04674 8.04672
            CHANNELS 3 Zrotation Xrotation Yrotation
            End Site
            {
              OFFSET 1 0 0
            }
          }
          JOINT rightEye
          {
            OFFSET -3.6576 8.04674 8.04672
            CHANNELS 3 Zrotation Xrotation Yrotation
            End Site
            {
              OFFSET 1 0 0
            }
          }
        }
      }
      JOINT rCollar
      {
        OFFSET -2.68224 19.2634 -4.8768
        CHANNELS 3 Zrotation Xrotation Yrotation
        JOINT rShldr
        {
          OFFSET -8.77824 -1.95073 1.46304
          CHANNELS 3 Zrotation Xrotation Yrotation
          JOINT rForeArm
          {
            OFFSET -28.1742 -1.7115 0.48768
            CHANNELS 3 Zrotation Xrotation Yrotation
            JOINT rHand
            {
              OFFSET -22.5879 0.773209 7.07136
              CHANNELS 3 Zrotation Xrotation Yrotation
              JOINT rThumb1
              {
                OFFSET -1.2192 -0.487915 3.41376
                CHANNELS 3 Zrotation Xrotation Yrotation
                JOINT rThumb2
                {
                  OFFSET -3.37035 -0.52449 3.41376
                  CHANNELS 3 Zrotation Xrotation Yrotation
                  End Site
                  {
                    OFFSET -1.78271 -1.18214 1.43049
                  }
                }
              }
              JOINT rIndex1
              {
                OFFSET -7.75947 0.938293 5.60832
                CHANNELS 3 Zrotation Xrotation Yrotation
                JOINT rIndex2
                {
                  OFFSET -2.54057 -0.884171 1.56538
                  CHANNELS 3 Zrotation Xrotation Yrotation
                  End Site
                  {
                    OFFSET -1.62519 -0.234802 1.16502
                  }
                }
              }
              JOINT rMid1
              {
                OFFSET -8.24714 1.18213 3.41376
                CHANNELS 3 Zrotation Xrotation Yrotation
                JOINT rMid2
                {
                  OFFSET -3.10165 -0.590103 1.0647
                  CHANNELS 3 Zrotation Xrotation Yrotation
                  End Site
                  {
                    OFFSET -2.48547 -0.328903 0.83742
                  }
                }
              }
              JOINT rRing1
              {
                OFFSET -8.82822 0.546677 1.51678
                CHANNELS 3 Zrotation Xrotation Yrotation
                JOINT rRing2
                {
                  OFFSET -2.60934 -0.819778 -0.0198488
                  CHANNELS 3 Zrotation Xrotation Yrotation
                  End Site
                  {
                    OFFSET -2.33842 -0.294052 0.168128
                  }
                }
              }
              JOINT rPinky1
              {
                OFFSET -8.27202 -0.0477905 -0.4584
                CHANNELS 3 Zrotation Xrotation Yrotation
                JOINT rPinky2
                {
                  OFFSET -1.82734 -0.647385 -0.700984
                  CHANNELS 3 Zrotation Xrotation Yrotation
                  End Site
                  {
                    OFFSET -1.69225 -0.51767 -0.607171
                  }
                }
              }
            }
          }
        }
      }
      JOINT lCollar
      {
        OFFSET 2.68224 19.2634 -4.8768
        CHANNELS 3 Zrotation Xrotation Yrotation
        JOINT lShldr
        {
          OFFSET 8.77824 -1.95073 1.46304
          CHANNELS 3 Zrotation Xrotation Yrotation
          JOINT lForeArm
          {
            OFFSET 28.1742 -1.7115 0.48768
            CHANNELS 3 Zrotation Xrotation Yrotation
            JOINT lHand
            {
              OFFSET 22.5879 0.773209 7.07136
              CHANNELS 3 Zrotation Xrotation Yrotation
              JOINT lThumb1
              {
                OFFSET 1.2192 -0.487915 3.41376
                CHANNELS 3 Zrotation Xrotation Yrotation
                JOINT lThumb2
                {
                  OFFSET 3.37035 -0.52449 3.41376
                  CHANNELS 3 Zrotation Xrotation Yrotation
                  End Site
                  {
                    OFFSET 1.78271 -1.18214 1.43049
                  }
                }
              }
              JOINT lIndex1
              {
                OFFSET 7.75947 0.938293 5.60832
                CHANNELS 3 Zrotation Xrotation Yrotation
                JOINT lIndex2
                {
                  OFFSET 2.54057 -0.884171 1.56538
                  CHANNELS 3 Zrotation Xrotation Yrotation
                  End Site
                  {
                    OFFSET 1.62519 -0.234802 1.16502
                  }
                }
              }
              JOINT lMid1
              {
                OFFSET 8.24714 1.18213 3.41376
                CHANNELS 3 Zrotation Xrotation Yrotation
                JOINT lMid2
                {
                  OFFSET 3.10165 -0.590103 1.0647
                  CHANNELS 3 Zrotation Xrotation Yrotation
                  End Site
                  {
                    OFFSET 2.48547 -0.328903 0.83742
                  }
                }
              }
              JOINT lRing1
              {
                OFFSET 8.82822 0.546677 1.51678
                CHANNELS 3 Zrotation Xrotation Yrotation
                JOINT lRing2
                {
                  OFFSET 2.60934 -0.819778 -0.0198488
                  CHANNELS 3 Zrotation Xrotation Yrotation
                  End Site
                  {
                    OFFSET 2.33842 -0.294052 0.168128
                  }
                }
              }
              JOINT lPinky1
              {
                OFFSET 8.27202 -0.0477905 -0.4584
                CHANNELS 3 Zrotation Xrotation Yrotation
                JOINT lPinky2
                {
                  OFFSET 1.82734 -0.647385 -0.700984
                  CHANNELS 3 Zrotation Xrotation Yrotation
                  End Site
                  {
                    OFFSET 1.69225 -0.51767 -0.607171
                  }
                }
              }
            }
          }
        }
      }
    }
  }
  JOINT rButtock
  {
    OFFSET -8.77824 4.35084 1.2192
    CHANNELS 3 Zrotation Xrotation Yrotation
    JOINT rThigh
    {
      OFFSET 0 -1.70687 -2.19456
      CHANNELS 3 Zrotation Xrotation Yrotation
      JOINT rShin
      {
        OFFSET 0 -36.8199 0.73152
        CHANNELS 3 Zrotation Xrotation Yrotation
        JOINT rFoot
        {
          OFFSET 0.73152 -45.1104 -5.12064
          CHANNELS 3 Zrotation Xrotation Yrotation
          End Site
          {
            OFFSET -1.1221 -3.69964 12.103
          }
        }
      }
    }
  }
  JOINT lButtock
  {
    OFFSET 8.77824 4.35084 1.2192
    CHANNELS 3 Zrotation Xrotation Yrotation
    JOINT lThigh
    {
      OFFSET 0 -1.70687 -2.19456
      CHANNELS 3 Zrotation Xrotation Yrotation
      JOINT lShin
      {
        OFFSET 0 -36.8199 0.73152
        CHANNELS 3 Zrotation Xrotation Yrotation
        JOINT lFoot
        {
          OFFSET -0.73152 -45.1104 -5.12064
          CHANNELS 3 Zrotation Xrotation Yrotation
          End Site
          {
            OFFSET 1.1221 -3.69964 12.103
          }
        }
      }
    }
  }
}
MOTION
Frames:	4
Frame Time:	0.00833333
-150.367 83.185 6.83875 0.0 0.0 0.0 -3.1312 0.00208552 -0.0845029 -0.863228 0.0181966 -0.149331 -3.32262e-14 0.0 8.44835e-16 -1.00004e-13 3.18055e-15 2.5314e-15 -0.0 0.0 0.0 -0.0 0.0 0.0 -1.6751e-14 -2.59352e-16 6.4605e-16 -3.49501e-13 -5.54112e-15 7.7526e-15 -6.06109e-12 1.6189e-12 2.19458e-13 -6.92548e-11 -2.79787e-12 1.46942e-12 -1.6339e-10 -2.55825e-12 3.67672e-12 -2.82173e-10 -4.41779e-12 6.35236e-12 -1.63382e-10 -2.55597e-12 3.66718e-12 7.73091 5.47488 0.417314 -1.63389e-10 -2.55786e-12 3.67672e-12 2.90554 0.965183 0.102902 -1.63386e-10 -2.55866e-12 3.67831e-12 10.2786 0.731801 0.0259123 -1.63394e-10 -2.55597e-12 3.68308e-12 2.22167 -0.733487 -0.20892 -1.69441e-14 -2.63234e-16 3.47873e-16 -3.5122e-13 -5.23052e-15 6.36111e-15 -6.04246e-12 -1.99361e-12 2.09917e-13 -6.9259e-11 8.17477e-13 1.50122e-12 -1.63359e-10 -2.55506e-12 3.69899e-12 -2.8211e-10 -4.41143e-12 6.39212e-12 -1.63361e-10 -2.55438e-12 3.71807e-12 -7.73091 5.47488 -0.417314 -1.63359e-10 -2.55528e-12 3.69899e-12 -2.90554 0.965183 -0.102902 -1.63365e-10 -2.55508e-12 3.69819e-12 -10.2786 0.731801 -0.0259123 -1.6335e-10 -2.55399e-12 3.68626e-12 -2.22167 -0.733487 0.20892 -2.03217e-16 0.0 -3.88251e-19 -1.91881 -1.93503 0.014625 -0.00850045 -2.07867 -0.0697595 -0.458633 4.00011 0.132454 2.03217e-16 0.0 3.88251e-19 -2.83825 -9.32626 0.322358 -0.00902475 11.3079 -0.235078 0.527377 -1.99509 -0.0183635
-145.76 80.429 0.370326 131.895 87.5417 142.523 -2.45268 4.85075 2.97337 -0.51349 -0.0405752 0.745079 -4.74389 3.91417 -3.02475 10.3561 -14.8096 -0.866525 -0.0 0.0 0.0 -0.0 0.0 0.0 -2.57703e-14 -4.31651e-14 1.18386e-14 20.1685 14.6646 4.16522 -28.7294 -26.0172 13.0213 0.0216391 -3.30211 -0.461427 -3.54741e-10 3.92636e-10 3.5931e-10 -6.1562e-10 6.76444e-10 6.18553e-10 -3.54736e-10 3.92638e-10 3.59301e-10 7.73091 5.47488 0.417314 -3.54741e-10 3.92637e-10 3.59316e-10 2.90554 0.965183 0.102902 -3.54737e-10 3.92636e-10 3.59312e-10 10.2786 0.731801 0.0259123 -3.54745e-10 3.92637e-10 3.59317e-10 2.22167 -0.733487 -0.20892 -2.59457e-14 -4.31675e-14 1.15699e-14 -17.9552 21.7401 13.5052 19.5666 -17.2781 -15.1615 -0.129753 -8.0225 1.08827 -7.25048e-11 -1.28299e-10 5.49797e-10 -1.36539e-10 -2.22894e-10 9.49715e-10 -7.25083e-11 -1.283e-10 5.49811e-10 -7.73091 5.47488 -0.417314 -7.25046e-11 -1.283e-10 5.49794e-10 -2.90554 0.965183 -0.102902 -7.25118e-11 -1.283e-10 5.49796e-10 -10.2786 0.731801 -0.0259123 -7.24959e-11 -1.28299e-10 5.49784e-10 -2.22167 -0.733487 0.20892 -2.03217e-16 0.0 -3.88251e-19 0.03191 5.19842 -0.935095 0.0182533 4.02062 0.0769798 -0.462813 6.78745 -0.179759 2.03217e-16 0.0 3.88251e-19 -2.75648 -25.2853 0.0327924 0.19895 25.9687 -0.384099 0.220179 -0.445337 -1.51179
-142.091 80.8938 0.552579 148.133 87.6292 159.124 -2.31149 9.92571 6.30324 -0.130572 -0.112973 1.69768 -9.31227 8.01681 -6.26536 20.7139 -30.462 -2.00396 -0.0 0.0 0.0 -0.0 0.0 0.0 -3.59178e-14 -9.48724e-14 2.36926e-14 38.7328 29.9073 9.71378 -41.2361 -48.4563 37.7068 -0.013818 -6.7341 -0.946277 -5.70841e-10 7.41777e-10 6.73845e-10 -9.91142e-10 1.27702e-09 1.15942e-09 -5.7084e-10 7.41781e-10 6.73838e-10 7.73091 5.47488 0.417314 -5.70843e-10 7.4178e-10 6.73859e-10 2.90554 0.965183 0.102902 -5.70838e-10 7.41778e-10 6.73847e-10 10.2786 0.731801 0.0259123 -5.70847e-10 7.41777e-10 6.73853e-10 2.22167 -0.733487 -0.20892 -3.60756e-14 -9.4873e-14 2.34566e-14 -50.6266 40.3924 34.9015 29.3848 -31.2867 -35.4977 0.0783331 -16.5562 2.32091 4.59599e-11 -2.65284e-10 1.15874e-09 5.53728e-11 -4.60963e-10 2.00205e-09 4.59549e-11 -2.65287e-10 1.15875e-09 -7.73091 5.47488 -0.417314 4.59602e-11 -2.65287e-10 1.15873e-09 -2.90554 0.965183 -0.102902 4.59523e-11 -2.65287e-10 1.15873e-09 -10.2786 0.731801 -0.0259123 4.5969e-11 -2.65286e-10 1.15872e-09 -2.22167 -0.733487 0.20892 -2.03217e-16 0.0 -3.88251e-19 2.33376 12.8056 -1.92231 0.0162981 10.1775 0.237074 -0.437718 9.76005 -0.433967 2.03217e-16 0.0 3.88251e-19 -2.90595 -42.2936 -0.433043 0.543784 41.7993 -0.642955 -0.0148877 1.19378 -3.02782
-138.407 81.3363 0.715901 166.71 87.307 177.884 -2.68331 14.382 9.35277 0.191488 -0.157975 2.53391 -12.9757 11.6103 -9.24381 29.2712 -44.3796 -3.51743 -0.0 0.0 0.0 -0.0 0.0 0.0 -4.38088e-14 -1.28977e-13 3.42236e-14 52.2006 42.8864 16.6071 -30.9121 -53.6903 75.8714 -0.0966801 -9.90373 -1.40289 -7.37443e-10 1.18302e-09 1.07058e-09 -1.28251e-09 2.03817e-09 1.84295e-09 -7.37444e-10 1.18303e-09 1.07057e-09 7.73091 5.47488 0.417314 -7.37445e-10 1.18303e-09 1.0706e-09 2.90554 0.965183 0.102902 -7.37439e-10 1.18302e-09 1.07058e-09 10.2786 0.731801 0.0259123 -7.37448e-10 1.18302e-09 1.07058e-09 2.22167 -0.733487 -0.20892 -4.39489e-14 -1.28976e-13 3.40139e-14 -93.6434 46.7932 62.9863 29.5426 -35.7924 -57.8701 0.598188 -24.0311 3.54002 1.09203e-10 -3.79787e-10 1.64199e-09 1.54603e-10 -6.5986e-10 2.83636e-09 1.09197e-10 -3.79791e-10 1.642e-09 -7.73091 5.47488 -0.417314 1.09204e-10 -3.79791e-10 1.64198e-09 -2.90554 0.965183 -0.102902 1.09195e-10 -3.79791e-10 1.64199e-09 -10.2786 0.731801 -0.0259123 1.09212e-10 -3.79789e-10 1.64198e-09 -2.22167 -0.733487 0.20892 -2.03217e-16 0.0 -3.88251e-19 4.6775 19.4428 -2.99385 -0.0246772 16.2188 0.385126 -0.378109 12.361 -0.818741 2.03217e-16 0.0 3.88251e-19 -3.37964 -57.199 -1.01022 1.03248 55.2875 -1.00963 -0.151948 2.64553 -4.50333
